<mxfile host="65bd71144e">
    <diagram id="DNgStaLSSKfY_RT5eu-L" name="Page-1">
        <mxGraphModel dx="832" dy="441" grid="1" gridSize="10" guides="1" tooltips="1" connect="1" arrows="1" fold="1" page="1" pageScale="1" pageWidth="850" pageHeight="1100" math="0" shadow="0">
            <root>
                <mxCell id="0"/>
                <mxCell id="1" parent="0"/>
                <mxCell id="2" value="&lt;font style=&quot;font-size: 24px; color: rgb(255, 255, 102);&quot;&gt;glowing button&lt;/font&gt;" style="rounded=0;whiteSpace=wrap;html=1;fillColor=#999999;" vertex="1" parent="1">
                    <mxGeometry x="280" y="160" width="230" height="130" as="geometry"/>
                </mxCell>
                <mxCell id="4" value="" style="ellipse;whiteSpace=wrap;html=1;aspect=fixed;gradientColor=#FF99FF;" vertex="1" parent="1">
                    <mxGeometry x="230" y="110" width="130" height="130" as="geometry"/>
                </mxCell>
                <mxCell id="3" value="" style="rounded=0;whiteSpace=wrap;html=1;fillColor=#999999;strokeColor=default;" vertex="1" parent="1">
                    <mxGeometry x="290" y="170" width="210" height="110" as="geometry"/>
                </mxCell>
                <mxCell id="5" value="radial gradient" style="text;html=1;align=center;verticalAlign=middle;whiteSpace=wrap;rounded=0;" vertex="1" parent="1">
                    <mxGeometry x="120" y="140" width="120" height="30" as="geometry"/>
                </mxCell>
            </root>
        </mxGraphModel>
    </diagram>
</mxfile>